<?xml version="1.0" encoding="UTF-8" standalone="no"?>
<svg
   xmlns:dc="http://purl.org/dc/elements/1.1/"
   xmlns:cc="http://creativecommons.org/ns#"
   xmlns:rdf="http://www.w3.org/1999/02/22-rdf-syntax-ns#"
   xmlns:svg="http://www.w3.org/2000/svg"
   xmlns="http://www.w3.org/2000/svg"
   xmlns:sodipodi="http://sodipodi.sourceforge.net/DTD/sodipodi-0.dtd"
   xmlns:inkscape="http://www.inkscape.org/namespaces/inkscape"
   width="21.743971"
   height="17.408001"
   viewBox="0 0 21.743971 17.408001"
   version="1.1"
   id="svg8"
   inkscape:version="1.0.2 (e86c870879, 2021-01-15)"
   sodipodi:docname="ls.svg">
  <defs
     id="defs2" />
  <sodipodi:namedview
     id="base"
     pagecolor="#ffffff"
     bordercolor="#666666"
     borderopacity="1.0"
     inkscape:pageopacity="0.0"
     inkscape:pageshadow="2"
     inkscape:zoom="11.2"
     inkscape:cx="4.4349296"
     inkscape:cy="16.232698"
     inkscape:document-units="mm"
     inkscape:current-layer="g873"
     inkscape:document-rotation="0"
     showgrid="false"
     units="px"
     inkscape:pagecheckerboard="true"
     inkscape:window-width="1600"
     inkscape:window-height="871"
     inkscape:window-x="0"
     inkscape:window-y="0"
     inkscape:window-maximized="1" />
  <metadata
     id="metadata5">
    <rdf:RDF>
      <cc:Work
         rdf:about="">
        <dc:format>image/svg+xml</dc:format>
        <dc:type
           rdf:resource="http://purl.org/dc/dcmitype/StillImage" />
        <dc:title></dc:title>
      </cc:Work>
    </rdf:RDF>
  </metadata>
  <g
     inkscape:label="Ebene 1"
     inkscape:groupmode="layer"
     id="layer1"
     transform="translate(-33.058364,-9.506183)">
    <g
       aria-label="aLoso"
       id="text835"
       style="font-size:32px;line-height:1.25;font-family:Vollkorn;-inkscape-font-specification:Vollkorn">
      <g
         id="g873">
        <g
           id="g839">
          <path
             d="m 40.277034,24.066183 c 0.362667,0 0.672,0.128 0.928,0.384 0.256,0.234667 0.384,0.533333 0.384,0.896 0,0.362667 -0.128,0.661333 -0.384,0.896 -0.256,0.234667 -0.565333,0.352 -0.928,0.352 h -5.93867 c -0.362667,0 -0.672,-0.128 -0.928,-0.384 -0.234667,-0.256 -0.352,-0.565333 -0.352,-0.928 V 10.844724 c 0,-0.362667 0.128,-0.661333 0.384,-0.8959996 0.256,-0.256 0.576,-0.384 0.96,-0.384 0.362667,0 0.672,0.128 0.928,0.384 0.256,0.2346666 0.384,0.5333326 0.384,0.8959996 v 13.797459 l -0.64,-0.576 z"
             style="font-style:normal;font-variant:normal;font-weight:normal;font-stretch:normal;font-size:32px;font-family:Quicksand;-inkscape-font-specification:'Quicksand, @wght=500';font-variant-ligatures:normal;font-variant-caps:normal;font-variant-numeric:normal;font-variant-east-asian:normal;font-variation-settings:'wght' 500;fill:#f88e00;fill-opacity:1"
             id="path859"
             sodipodi:nodetypes="scsssscsscscsccs" />
          <path
             d="m 42.194335,23.970183 q -0.288,-0.416 -0.256,-0.928 0.032,-0.544 0.608,-0.928 0.384,-0.256 0.832,-0.224 0.48,0.032 0.896,0.448 0.864,1.024 1.984,1.632 1.152,0.576 2.752,0.576 0.704,0 1.44,-0.192 0.736,-0.224 1.216,-0.736 0.512,-0.512 0.512,-1.408 0,-0.864 -0.544,-1.344 -0.512,-0.512 -1.376,-0.832 -0.832,-0.352 -1.824,-0.608 -1.056,-0.288 -2.08,-0.64 -1.024,-0.352 -1.856,-0.896 -0.832,-0.576 -1.344,-1.44 -0.48,-0.864 -0.48,-2.144 0,-1.472 0.8,-2.528 0.8,-1.088 2.144,-1.664 1.344,-0.608 2.944,-0.608 0.896,0 1.888,0.224 1.024,0.224 1.952,0.736 0.96,0.512 1.664,1.344 0.32,0.384 0.352,0.896 0.032,0.512 -0.48,0.96 -0.384,0.288 -0.864,0.256 -0.48,-0.032 -0.8,-0.352 -0.64,-0.8 -1.632,-1.216 -0.992,-0.416 -2.208,-0.416 -0.672,0 -1.376,0.192 -0.704,0.192 -1.184,0.704 -0.448,0.48 -0.448,1.376 0,0.832 0.544,1.344 0.544,0.512 1.44,0.832 0.896,0.32 1.984,0.608 0.992,0.256 1.952,0.608 0.96,0.352 1.728,0.896 0.768,0.544 1.248,1.408 0.48,0.864 0.48,2.176 0,1.536 -0.896,2.624 -0.864,1.056 -2.24,1.632 -1.344,0.576 -2.912,0.576 -1.792,0 -3.552,-0.64 -1.76,-0.672 -3.008,-2.304 z"
             style="font-style:normal;font-variant:normal;font-weight:normal;font-stretch:normal;font-size:32px;font-family:Quicksand;-inkscape-font-specification:'Quicksand, @wght=550';font-variant-ligatures:normal;font-variant-caps:normal;font-variant-numeric:normal;font-variant-east-asian:normal;font-variation-settings:'wght' 550;fill:#f88e00;fill-opacity:1"
             id="path863" />
        </g>
      </g>
    </g>
  </g>
</svg>
