<?xml version="1.0" standalone="no"?>
<!DOCTYPE svg PUBLIC "-//W3C//DTD SVG 20010904//EN"
 "http://www.w3.org/TR/2001/REC-SVG-20010904/DTD/svg10.dtd">
<svg version="1.0" xmlns="http://www.w3.org/2000/svg"
 width="704.000000pt" height="704.000000pt" viewBox="0 0 704.000000 704.000000"
 preserveAspectRatio="xMidYMid meet">
<metadata>
Created by potrace 1.11, written by Peter Selinger 2001-2013
</metadata>
<g transform="translate(0.000000,704.000000) scale(0.100000,-0.100000)"
fill="#000000" stroke="none">
<path d="M4829 6336 c-2 -2 -36 -7 -75 -10 -39 -4 -82 -9 -95 -12 -13 -2 -37
-7 -54 -9 -140 -20 -380 -89 -500 -145 -151 -69 -189 -88 -264 -133 -303 -181
-535 -451 -646 -751 -14 -38 -27 -78 -30 -90 -2 -11 -9 -39 -14 -61 -27 -110
-35 -196 -34 -360 1 -126 6 -212 17 -270 2 -11 7 -38 11 -60 13 -75 74 -252
108 -313 44 -79 81 -137 104 -162 13 -14 23 -28 23 -32 0 -4 42 -51 93 -104
91 -96 227 -206 296 -241 20 -10 43 -23 51 -30 26 -20 251 -130 335 -163 125
-50 488 -171 585 -195 8 -2 38 -11 65 -19 28 -8 124 -35 215 -61 261 -73 570
-184 715 -257 216 -109 407 -306 431 -443 3 -17 9 -46 14 -65 9 -34 7 -245 -3
-285 -31 -126 -69 -203 -141 -283 -141 -159 -372 -268 -636 -298 -30 -3 -64
-8 -75 -10 -23 -5 -298 -4 -365 0 -46 4 -135 14 -180 21 -61 10 -179 37 -210
47 -8 3 -52 17 -98 32 -120 39 -220 88 -334 162 -55 36 -106 70 -113 77 -7 7
-22 19 -35 27 -63 43 -168 139 -259 235 -159 168 -194 196 -299 234 -49 18
-162 21 -226 7 -78 -18 -211 -106 -246 -162 -8 -13 -18 -24 -22 -24 -6 0 -36
-56 -43 -82 -2 -5 -3 -9 -4 -10 -14 -18 -19 -161 -7 -218 13 -65 65 -162 121
-227 6 -6 33 -37 60 -69 102 -119 245 -251 386 -357 60 -45 304 -187 322 -187
9 0 17 -3 17 -8 0 -4 12 -12 28 -18 15 -6 51 -21 80 -33 87 -36 263 -90 410
-126 118 -29 184 -41 372 -70 177 -27 649 -27 773 0 12 2 36 7 52 10 106 18
145 27 239 54 58 16 115 35 126 41 11 6 20 9 20 6 0 -7 181 69 273 116 71 35
221 125 251 149 6 5 47 38 91 73 106 84 263 249 287 302 6 13 15 24 19 24 22
0 145 253 175 360 14 51 34 154 41 205 10 77 10 352 0 430 -13 103 -17 129
-23 147 -2 9 -7 26 -9 38 -45 233 -237 529 -453 699 -215 169 -421 271 -822
408 -25 8 -52 18 -60 21 -8 3 -19 6 -25 8 -5 1 -73 21 -150 44 -77 23 -147 43
-155 45 -43 9 -216 57 -290 80 -47 14 -92 27 -100 29 -38 10 -297 97 -312 106
-10 6 -23 10 -29 10 -20 0 -219 100 -272 137 -184 127 -265 230 -302 385 -32
129 -23 316 22 438 68 187 261 341 509 405 54 14 109 27 123 30 32 5 115 16
156 21 44 5 296 5 320 0 11 -2 45 -7 75 -10 109 -13 126 -16 228 -42 178 -44
350 -121 507 -227 33 -23 116 -98 185 -167 128 -128 171 -157 264 -181 59 -15
189 -7 239 14 20 9 38 15 40 14 1 -1 16 8 32 20 150 110 212 246 182 404 -11
58 -50 153 -74 177 -7 7 -13 18 -13 23 0 18 -226 236 -305 295 -44 32 -81 62
-83 67 -2 4 -8 7 -13 7 -5 0 -32 15 -61 33 -175 111 -500 248 -668 281 -14 3
-56 12 -95 21 -38 8 -83 17 -100 20 -16 2 -41 7 -55 10 -14 3 -45 8 -70 11
-25 3 -61 7 -80 10 -43 6 -456 15 -461 10z"/>
<path d="M429 6326 c-2 -2 -26 -6 -54 -9 -163 -16 -311 -139 -362 -302 -10
-32 -13 -539 -13 -2445 0 -2612 -3 -2451 55 -2559 56 -101 169 -182 280 -199
28 -4 509 -7 1070 -7 946 1 1024 2 1070 19 206 72 314 247 281 456 -4 24 -12
52 -17 62 -5 10 -7 18 -4 18 3 0 -7 19 -21 42 -31 51 -123 148 -140 148 -7 0
-14 4 -16 8 -6 16 -101 53 -151 59 -29 3 -387 6 -797 7 l-745 1 -5 2190 c-4
1848 -7 2195 -19 2225 -60 151 -205 263 -354 276 -20 2 -41 5 -46 8 -4 3 -10
4 -12 2z"/>
</g>
</svg>
